<?xml version="1.0" standalone="no"?>
<!DOCTYPE svg PUBLIC "-//W3C//DTD SVG 20010904//EN"
 "http://www.w3.org/TR/2001/REC-SVG-20010904/DTD/svg10.dtd">
<svg version="1.0" xmlns="http://www.w3.org/2000/svg"
 width="15px" height="15px" viewBox="0 0 1279.000000 1280.000000"
 preserveAspectRatio="xMidYMid meet">
<metadata>
Created by potrace 1.15, written by Peter Selinger 2001-2017
</metadata>
<g transform="translate(0.000000,1280.000000) scale(0.100000,-0.100000)"
fill="#000000" stroke="none">
<path d="M6290 12794 c-102 -20 -204 -69 -290 -140 -36 -29 -586 -574 -1222
-1211 l-1158 -1158 0 641 c0 414 -4 661 -11 698 -31 170 -158 300 -326 336
-31 7 -308 10 -798 8 l-750 -3 -55 -23 c-113 -46 -196 -129 -242 -242 l-23
-55 -3 -1790 -2 -1790 -649 -650 c-486 -487 -656 -664 -679 -705 -189 -341
-29 -763 338 -891 98 -34 252 -38 356 -9 141 38 188 72 421 303 l213 211 2
-3000 3 -2999 21 -51 c47 -115 133 -202 241 -246 l58 -23 4660 0 4660 0 58 23
c108 44 194 131 241 246 l21 51 3 2999 2 3000 213 -211 c233 -231 280 -265
421 -303 104 -29 258 -25 356 9 367 128 527 550 338 891 -35 62 -511 543
-3883 3916 -1947 1947 -2064 2063 -2132 2098 -40 20 -94 44 -120 52 -48 15
-236 27 -283 18z"/>
</g>
</svg>