<svg width="138" height="137" viewBox="0 0 138 137" fill="none" xmlns="http://www.w3.org/2000/svg">
<path d="M77.9611 102.02C78.9169 105.595 76.7562 109.32 73.0455 109.663C66.2552 110.29 59.3694 109.254 53.0061 106.601C44.5493 103.074 37.4867 96.8857 32.9108 88.993C28.3349 81.1002 26.5006 71.943 27.6918 62.9377C28.883 53.9324 33.0333 45.581 39.5006 39.1753C45.9679 32.7696 54.3918 28.6665 63.4693 27.5009C72.5468 26.3352 81.772 28.1719 89.7178 32.7268C97.6637 37.2817 103.887 44.3009 107.426 52.6988C110.089 59.0168 111.12 65.8501 110.476 72.5858C110.124 76.2697 106.368 78.4083 102.768 77.4537C99.1902 76.505 97.1475 72.8427 97.2188 69.1656C97.2939 65.2933 96.559 61.4192 95.0319 57.7954C92.6345 52.1063 88.4183 47.3511 83.0353 44.2653C77.6524 41.1796 71.4028 39.9354 65.2532 40.725C59.1036 41.5147 53.3968 44.2943 49.0155 48.6339C44.6342 52.9735 41.8227 58.6312 41.0157 64.7318C40.2087 70.8324 41.4513 77.0361 44.5512 82.383C47.6512 87.73 52.4358 91.9223 58.1649 94.3115C61.8175 95.8347 65.7243 96.5709 69.6305 96.5019C73.3307 96.4365 77.0119 98.4694 77.9611 102.02Z" fill="#C2566D"/>
</svg>