<svg width="181" height="43" viewBox="0 0 181 43" fill="none" xmlns="http://www.w3.org/2000/svg">
<path d="M43.7414 14.7773C43.7414 22.8577 37.2579 27.7988 29.2602 27.7988C21.2624 27.7988 11.8621 32.045 11.8621 23.9645C11.8621 15.8841 14.0218 0 22.0196 0C30.0173 0 43.7414 6.69683 43.7414 14.7773Z" fill="#0EE1CD"/>
<path fill-rule="evenodd" clip-rule="evenodd" d="M7.56825 24.8362V19.7213C10.074 21.0598 13.9036 21.8089 18.1638 21.8089C22.424 21.8089 26.2536 21.0598 28.7593 19.7213V24.8362C28.7593 26.1032 24.0651 27.8635 18.1638 27.8635C12.2625 27.8635 7.56825 26.1032 7.56825 24.8362ZM4.54095 24.8362V15.7543C4.54095 12.0055 10.6896 9.69971 18.1638 9.69971C25.638 9.69971 31.7866 12.0055 31.7866 15.7543V24.8362V33.9181C31.7866 37.6669 25.638 39.9727 18.1638 39.9727C10.6896 39.9727 4.54095 37.6669 4.54095 33.9181V24.8362ZM28.7593 28.8032V33.9181C28.7593 35.1851 24.0651 36.9454 18.1638 36.9454C12.2625 36.9454 7.56825 35.1851 7.56825 33.9181V28.8032C10.074 30.1417 13.9036 30.8908 18.1638 30.8908C22.424 30.8908 26.2536 30.1417 28.7593 28.8032ZM18.1638 18.7816C24.0629 18.7816 28.7559 17.0226 28.7593 15.7557L28.7593 15.7543C28.7593 14.4873 24.0651 12.727 18.1638 12.727C12.2625 12.727 7.56825 14.4873 7.56825 15.7543C7.56825 17.0213 12.2625 18.7816 18.1638 18.7816Z" fill="#353A85"/>
<path d="M69.5625 6.84375H69.6406L71.9453 15H73.8438L76.8672 3.72656H74.7734L72.8203 12.2656H72.7578L70.4922 3.72656H68.7109L66.4453 12.2656H66.3828L64.4297 3.72656H62.3359L65.3594 15H67.2578L69.5625 6.84375ZM79.9453 13.6641C79.1016 13.6641 78.5391 13.2344 78.5391 12.5547C78.5391 11.8984 79.0781 11.4766 80.0156 11.4141L81.9297 11.2969V11.9297C81.9297 12.9297 81.0469 13.6641 79.9453 13.6641ZM79.3594 15.1328C80.4219 15.1328 81.4609 14.5781 81.9375 13.6797H81.9766V15H83.8516V9.29688C83.8516 7.63281 82.5156 6.54688 80.4609 6.54688C78.3516 6.54688 77.0312 7.65625 76.9453 9.20312H78.75C78.875 8.51562 79.4609 8.07031 80.3828 8.07031C81.3438 8.07031 81.9297 8.57031 81.9297 9.4375V10.0312L79.7422 10.1562C77.7266 10.2812 76.5938 11.1641 76.5938 12.6328C76.5938 14.125 77.7578 15.1328 79.3594 15.1328ZM85.4219 15H87.3672V10.1797C87.3672 9.01562 88.0312 8.30469 89.1328 8.30469C89.4609 8.30469 89.7578 8.35156 89.9219 8.41406V6.65625C89.7812 6.625 89.5625 6.57812 89.3125 6.57812C88.3359 6.57812 87.6094 7.15625 87.3281 8.16406H87.2891V6.71875H85.4219V15ZM94.1797 8.05469C95.2969 8.05469 96.0469 8.875 96.0859 10.0469H92.2188C92.2969 8.89062 93.0859 8.05469 94.1797 8.05469ZM96.0938 12.5234C95.8828 13.2109 95.1953 13.6641 94.2891 13.6641C93.0156 13.6641 92.2031 12.7734 92.2031 11.4453V11.3281H97.9922V10.6953C97.9922 8.17969 96.5234 6.54688 94.1719 6.54688C91.7812 6.54688 90.2656 8.27344 90.2656 10.8906C90.2656 13.5312 91.7656 15.1641 94.25 15.1641C96.2109 15.1641 97.6641 14.0859 97.9141 12.5234H96.0938ZM99.3047 15H101.25V10.2422C101.25 9.02344 101.961 8.21094 103.133 8.21094C104.258 8.21094 104.836 8.90625 104.836 10.0625V15H106.781V9.66406C106.781 7.76562 105.711 6.5625 103.883 6.5625C102.625 6.5625 101.711 7.13281 101.266 8.14062H101.227V3.72656H99.3047V15ZM112.008 15.1641C114.438 15.1641 116.016 13.5469 116.016 10.8594C116.016 8.17969 114.422 6.54688 112.008 6.54688C109.594 6.54688 108 8.1875 108 10.8594C108 13.5469 109.578 15.1641 112.008 15.1641ZM112.008 13.625C110.773 13.625 109.977 12.625 109.977 10.8594C109.977 9.10156 110.781 8.09375 112.008 8.09375C113.242 8.09375 114.039 9.10156 114.039 10.8594C114.039 12.625 113.242 13.625 112.008 13.625ZM124.609 6.71875H122.664V11.5078C122.664 12.7109 121.969 13.5078 120.844 13.5078C119.75 13.5078 119.172 12.8672 119.172 11.6797V6.71875H117.227V12.0703C117.227 13.9844 118.367 15.1484 120.164 15.1484C121.422 15.1484 122.258 14.5703 122.695 13.5625H122.734V15H124.609V6.71875ZM126.055 9.09375C126.055 10.2891 126.828 11.0859 128.359 11.4453L129.867 11.7969C130.672 12 130.977 12.2578 130.977 12.7422C130.977 13.3594 130.391 13.7422 129.445 13.7422C128.461 13.7422 127.875 13.3203 127.758 12.5625H125.844C125.977 14.1328 127.297 15.1641 129.375 15.1641C131.469 15.1641 132.914 14.1094 132.914 12.5469C132.914 11.3203 132.266 10.6797 130.609 10.2891L129.133 9.96094C128.32 9.76562 127.945 9.45312 127.945 8.98438C127.945 8.38281 128.508 7.97656 129.367 7.97656C130.273 7.97656 130.844 8.41406 130.906 9.125H132.719C132.672 7.59375 131.352 6.54688 129.406 6.54688C127.391 6.54688 126.055 7.57812 126.055 9.09375ZM137.727 8.05469C138.844 8.05469 139.594 8.875 139.633 10.0469H135.766C135.844 8.89062 136.633 8.05469 137.727 8.05469ZM139.641 12.5234C139.43 13.2109 138.742 13.6641 137.836 13.6641C136.562 13.6641 135.75 12.7734 135.75 11.4453V11.3281H141.539V10.6953C141.539 8.17969 140.07 6.54688 137.719 6.54688C135.328 6.54688 133.812 8.27344 133.812 10.8906C133.812 13.5312 135.312 15.1641 137.797 15.1641C139.758 15.1641 141.211 14.0859 141.461 12.5234H139.641ZM62.7969 34H64.7422V28.9297C64.7422 27.9297 65.3984 27.2031 66.3359 27.2031C67.2422 27.2031 67.8047 27.7734 67.8047 28.6953V34H69.6953V28.8828C69.6953 27.8906 70.3359 27.2031 71.2734 27.2031C72.2266 27.2031 72.7578 27.7812 72.7578 28.7969V34H74.7031V28.3203C74.7031 26.6641 73.6328 25.5625 72 25.5625C70.8047 25.5625 69.8203 26.2031 69.4219 27.2266H69.375C69.0703 26.1641 68.2344 25.5625 67.0625 25.5625C65.9375 25.5625 65.0625 26.1953 64.7031 27.1562H64.6641V25.7188H62.7969V34ZM79.2891 32.6641C78.4453 32.6641 77.8828 32.2344 77.8828 31.5547C77.8828 30.8984 78.4219 30.4766 79.3594 30.4141L81.2734 30.2969V30.9297C81.2734 31.9297 80.3906 32.6641 79.2891 32.6641ZM78.7031 34.1328C79.7656 34.1328 80.8047 33.5781 81.2812 32.6797H81.3203V34H83.1953V28.2969C83.1953 26.6328 81.8594 25.5469 79.8047 25.5469C77.6953 25.5469 76.375 26.6562 76.2891 28.2031H78.0938C78.2188 27.5156 78.8047 27.0703 79.7266 27.0703C80.6875 27.0703 81.2734 27.5703 81.2734 28.4375V29.0312L79.0859 29.1562C77.0703 29.2812 75.9375 30.1641 75.9375 31.6328C75.9375 33.125 77.1016 34.1328 78.7031 34.1328ZM84.7656 34H86.7109V29.2031C86.7109 28.0156 87.4219 27.2109 88.5391 27.2109C89.6484 27.2109 90.1953 27.8672 90.1953 29.0391V34H92.1406V28.6484C92.1406 26.7344 91.1016 25.5625 89.2734 25.5625C88 25.5625 87.1172 26.1562 86.6719 27.1406H86.6328V25.7188H84.7656V34ZM96.7266 32.6641C95.8828 32.6641 95.3203 32.2344 95.3203 31.5547C95.3203 30.8984 95.8594 30.4766 96.7969 30.4141L98.7109 30.2969V30.9297C98.7109 31.9297 97.8281 32.6641 96.7266 32.6641ZM96.1406 34.1328C97.2031 34.1328 98.2422 33.5781 98.7188 32.6797H98.7578V34H100.633V28.2969C100.633 26.6328 99.2969 25.5469 97.2422 25.5469C95.1328 25.5469 93.8125 26.6562 93.7266 28.2031H95.5312C95.6562 27.5156 96.2422 27.0703 97.1641 27.0703C98.125 27.0703 98.7109 27.5703 98.7109 28.4375V29.0312L96.5234 29.1562C94.5078 29.2812 93.375 30.1641 93.375 31.6328C93.375 33.125 94.5391 34.1328 96.1406 34.1328ZM105.859 32.4609C104.633 32.4609 103.852 31.4766 103.852 29.8359C103.852 28.2109 104.633 27.1797 105.859 27.1797C107.102 27.1797 107.906 28.2266 107.906 29.8359C107.906 31.4531 107.102 32.4609 105.859 32.4609ZM105.852 37.125C108.266 37.125 109.852 35.8438 109.852 33.8672V25.7188H107.945V27.1406H107.914C107.438 26.1875 106.484 25.5781 105.305 25.5781C103.188 25.5781 101.859 27.2109 101.859 29.8281C101.859 32.4062 103.219 34.0078 105.266 34.0078C106.453 34.0078 107.43 33.4141 107.859 32.5234H107.906V33.9219C107.906 34.9766 107.18 35.6875 105.914 35.6875C104.992 35.6875 104.281 35.2578 104.07 34.625H102.141C102.336 36.0781 103.805 37.125 105.852 37.125ZM115.008 27.0547C116.125 27.0547 116.875 27.875 116.914 29.0469H113.047C113.125 27.8906 113.914 27.0547 115.008 27.0547ZM116.922 31.5234C116.711 32.2109 116.023 32.6641 115.117 32.6641C113.844 32.6641 113.031 31.7734 113.031 30.4453V30.3281H118.82V29.6953C118.82 27.1797 117.352 25.5469 115 25.5469C112.609 25.5469 111.094 27.2734 111.094 29.8906C111.094 32.5312 112.594 34.1641 115.078 34.1641C117.039 34.1641 118.492 33.0859 118.742 31.5234H116.922ZM120.078 34H122.023V28.9297C122.023 27.9297 122.68 27.2031 123.617 27.2031C124.523 27.2031 125.086 27.7734 125.086 28.6953V34H126.977V28.8828C126.977 27.8906 127.617 27.2031 128.555 27.2031C129.508 27.2031 130.039 27.7812 130.039 28.7969V34H131.984V28.3203C131.984 26.6641 130.914 25.5625 129.281 25.5625C128.086 25.5625 127.102 26.2031 126.703 27.2266H126.656C126.352 26.1641 125.516 25.5625 124.344 25.5625C123.219 25.5625 122.344 26.1953 121.984 27.1562H121.945V25.7188H120.078V34ZM137.117 27.0547C138.234 27.0547 138.984 27.875 139.023 29.0469H135.156C135.234 27.8906 136.023 27.0547 137.117 27.0547ZM139.031 31.5234C138.82 32.2109 138.133 32.6641 137.227 32.6641C135.953 32.6641 135.141 31.7734 135.141 30.4453V30.3281H140.93V29.6953C140.93 27.1797 139.461 25.5469 137.109 25.5469C134.719 25.5469 133.203 27.2734 133.203 29.8906C133.203 32.5312 134.703 34.1641 137.188 34.1641C139.148 34.1641 140.602 33.0859 140.852 31.5234H139.031ZM142.188 34H144.133V29.2031C144.133 28.0156 144.844 27.2109 145.961 27.2109C147.07 27.2109 147.617 27.8672 147.617 29.0391V34H149.562V28.6484C149.562 26.7344 148.523 25.5625 146.695 25.5625C145.422 25.5625 144.539 26.1562 144.094 27.1406H144.055V25.7188H142.188V34ZM151.664 23.7812V25.7188H150.477V27.2188H151.664V31.7969C151.664 33.4062 152.367 34.0391 154.156 34.0391C154.57 34.0391 154.953 34.0078 155.164 33.9609V32.4766C155.039 32.5 154.789 32.5156 154.609 32.5156C153.922 32.5156 153.609 32.2031 153.609 31.5234V27.2188H155.172V25.7188H153.609V23.7812H151.664Z" fill="#282121"/>
</svg>
